Coordinates
version=1
nRows=13
nColumns=22
inDegrees=yes

Units are S.I. units (second, meters, Newtons, ...)
If the header above contains a line with 'inDegrees', this indicates whether rotational values are in degrees (yes) or radians (no).

endheader
time	pelvis_tilt	pelvis_list	pelvis_rotation	pelvis_tx	pelvis_ty	pelvis_tz	hip_flexion_r	hip_adduction_r	hip_rotation_r	knee_angle_r	ankle_angle_r	subtalar_angle_r	hip_flexion_l	hip_adduction_l	hip_rotation_l	knee_angle_l	ankle_angle_l	subtalar_angle_l	lumbar_extension	lumbar_bending	lumbar_rotation
      3.79000000	     -1.54596499	     -4.36557257	     -2.93111801	     -0.99041560	      0.92691973	      0.05273595	     -1.43396743	      7.77959814	     -4.88445905	    -15.25653055	     18.86499104	     -3.69815395	     31.31961927	     -7.69614014	     -5.54899324	    -26.71584993	      6.17842058	     -1.82577697	    -15.99212752	      0.00263429	      4.66213098
      3.80000000	     -1.26137355	     -4.10749224	     -2.64798500	     -0.99490869	      0.92874553	      0.05338583	     -1.54663973	      7.60532967	     -5.09005321	    -14.99810164	     18.49881295	     -3.85464838	     31.04439755	     -7.34017517	     -5.00757291	    -27.51204790	      6.31052491	     -1.64714776	    -16.16926003	     -0.39704339	      4.14461455
      3.81000000	     -0.97678514	     -3.82019815	     -2.36054847	     -0.99920035	      0.93050967	      0.05396790	     -1.67278768	      7.39568875	     -5.30348267	    -14.74548600	     18.16208048	     -4.01226528	     30.74883684	     -6.94279880	     -4.40863358	    -28.38109147	      6.45900724	     -1.44812983	    -16.33168075	     -0.81932502	      3.62784328
      3.82000000	     -0.68283983	     -3.54233527	     -2.07384929	     -1.00336145	      0.93218916	      0.05450269	     -1.80073785	      7.19400122	     -5.50281932	    -14.53603801	     17.87268287	     -4.18118042	     30.44324656	     -6.55540955	     -3.78319391	    -29.34770179	      6.60157141	     -1.21104682	    -16.50918757	     -1.22407829	      3.09496286
      3.83000000	     -0.45073483	     -3.27146911	     -1.80489670	     -1.00735333	      0.93365370	      0.05498491	     -1.86626545	      6.99413019	     -5.70607640	    -14.34382138	     17.58656854	     -4.32965377	     30.19649261	     -6.17981232	     -3.13488861	    -30.40752068	      6.79257235	     -1.02101838	    -16.60213562	     -1.61361948	      2.62684361
      3.84000000	     -0.23344339	     -3.04719829	     -1.55679998	     -1.01123539	      0.93495046	      0.05541059	     -1.89701229	      6.83538952	     -5.89759528	    -14.21020406	     17.33773963	     -4.48133801	     29.97524498	     -5.86921061	     -2.51205157	    -31.58039902	      6.97969203	     -0.83831924	    -16.68284962	     -1.93658705	      2.17297290
      3.85000000	     -0.04668876	     -2.86831685	     -1.35102855	     -1.01500816	      0.93605512	      0.05581217	     -1.87505369	      6.71392508	     -6.06592141	    -14.13329311	     17.10983637	     -4.62789752	     29.78665326	     -5.63704770	     -1.95222433	    -32.85168203	      7.17867692	     -0.67567964	    -16.72702967	     -2.20237470	      1.77942964
      3.86000000	      0.11360309	     -2.74065340	     -1.19600945	     -1.01866855	      0.93697384	      0.05621715	     -1.80309068	      6.63510680	     -6.20522077	    -14.11483088	     16.90373604	     -4.77120418	     29.61886371	     -5.49987144	     -1.47991794	    -34.20487127	      7.38233694	     -0.52870070	    -16.73579541	     -2.40755494	      1.45184877
      3.87000000	      0.25124710	     -2.65353268	     -1.10823058	     -1.02219086	      0.93772316	      0.05665634	     -1.69155328	      6.58671036	     -6.30325657	    -14.14375466	     16.72097066	     -4.89223078	     29.45302840	     -5.46417698	     -1.14516002	    -35.61707706	      7.60244358	     -0.41290200	    -16.70823758	     -2.57019096	      1.20714185
      3.88000000	      0.35883188	     -2.61077315	     -1.07658091	     -1.02559685	      0.93829780	      0.05712703	     -1.52887589	      6.57789166	     -6.32954265	    -14.22456492	     16.54993442	     -5.01921798	     29.29129586	     -5.52473248	     -0.91474612	    -37.06318795	      7.82019630	     -0.30938608	    -16.63765710	     -2.68355494	      1.00917109
      3.89000000	      0.46648188	     -2.59877446	     -1.10864474	     -1.02882821	      0.93875105	      0.05763658	     -1.36213203	      6.58956205	     -6.32763443	    -14.33617339	     16.40807836	     -5.11027432	     29.09063252	     -5.68384984	     -0.84172135	    -38.52965621	      8.06036719	     -0.25436769	    -16.54919348	     -2.76660278	      0.89369723
      3.90000000	      0.57688683	     -2.61958722	     -1.18365075	     -1.03192502	      0.93909799	      0.05814967	     -1.19158016	      6.62855304	     -6.28302904	    -14.48079800	     16.28948653	     -5.17612941	     28.84284722	     -5.92455574	     -0.87167606	    -39.98555313	      8.31015165	     -0.24002942	    -16.45509720	     -2.81067845	      0.82403017
      3.91000000	      0.70083926	     -2.66469966	     -1.28255397	     -1.03485988	      0.93936499	      0.05863955	     -1.03995500	      6.68437104	     -6.25124254	    -14.63979158	     16.20891685	     -5.21976303	     28.53372483	     -6.22863512	     -0.98953038	    -41.41361395	      8.55422843	     -0.24462419	    -16.36522565	     -2.82432314	      0.80445894
